<svg width="29" height="28" viewBox="0 0 29 28" fill="none" xmlns="http://www.w3.org/2000/svg">
<path d="M14.625 24.5C20.424 24.5 25.125 19.799 25.125 14C25.125 8.20101 20.424 3.5 14.625 3.5C8.82601 3.5 4.125 8.20101 4.125 14C4.125 19.799 8.82601 24.5 14.625 24.5Z" stroke="#ACAEBE" stroke-linecap="round" stroke-linejoin="round"/>
<path d="M14.625 17.5C17.0412 17.5 19 15.5412 19 13.125C19 10.7088 17.0412 8.75 14.625 8.75C12.2088 8.75 10.25 10.7088 10.25 13.125C10.25 15.5412 12.2088 17.5 14.625 17.5Z" stroke="#ACAEBE" stroke-linecap="round" stroke-linejoin="round"/>
<path d="M7.60303 21.8065C8.26213 20.5107 9.26697 19.4225 10.5063 18.6624C11.7456 17.9023 13.1711 17.5 14.625 17.5C16.0788 17.5 17.5043 17.9023 18.7437 18.6624C19.983 19.4224 20.9879 20.5106 21.647 21.8065" stroke="#ACAEBE" stroke-linecap="round" stroke-linejoin="round"/>
</svg>
