<svg width="29" height="28" viewBox="0 0 29 28" fill="none" xmlns="http://www.w3.org/2000/svg">
<path d="M24.3023 11.3427L15.5515 3.38721C15.2301 3.09289 14.8101 2.92966 14.3743 2.92969C13.9385 2.92972 13.5185 3.09301 13.1971 3.38737L4.44783 11.3426C4.26757 11.5068 4.12352 11.7067 4.02489 11.9297C3.92626 12.1526 3.87521 12.3937 3.875 12.6375V22.7104C3.86998 23.1502 4.026 23.5767 4.31366 23.9094C4.47754 24.0956 4.67934 24.2447 4.90554 24.3467C5.13174 24.4486 5.37711 24.501 5.62521 24.5004H10.8711C11.1032 24.5004 11.3258 24.4082 11.4899 24.2441C11.654 24.08 11.7461 23.8574 11.7461 23.6254V18.3746C11.7461 18.1425 11.8383 17.9199 12.0024 17.7559C12.1665 17.5918 12.3891 17.4996 12.6211 17.4996H16.1211C16.3532 17.4996 16.5758 17.5918 16.7399 17.7559C16.904 17.9199 16.9961 18.1425 16.9961 18.3746V23.6254C16.9961 23.8574 17.0883 24.08 17.2524 24.2441C17.4165 24.4082 17.6391 24.5004 17.8711 24.5004H23.1274C23.4149 24.5041 23.6986 24.4342 23.9515 24.2974C24.2306 24.1467 24.4637 23.9234 24.6263 23.6511C24.7889 23.3788 24.8748 23.0675 24.875 22.7504V12.6376C24.8748 12.3938 24.8237 12.1527 24.7251 11.9298C24.6265 11.7068 24.4825 11.5069 24.3023 11.3427Z" fill="#7163FD"/>
</svg>
