<svg width="28" height="24" viewBox="0 0 28 24" fill="none" xmlns="http://www.w3.org/2000/svg">
<path fill-rule="evenodd" clip-rule="evenodd" d="M13.688 2C19.9776 2 25.0947 6.486 25.0947 12C25.0947 17.514 19.9776 22 13.688 22C7.39831 22 2.28125 17.514 2.28125 12C2.28125 6.486 7.39831 2 13.688 2ZM13.688 3.5C8.34164 3.5 3.99226 7.313 3.99226 12C3.99226 16.687 8.34164 20.5 13.688 20.5C19.0343 20.5 23.3837 16.687 23.3837 12C23.3837 7.313 19.0343 3.5 13.688 3.5ZM13.6924 14.7959C14.3232 14.7959 14.8331 15.2429 14.8331 15.7959C14.8331 16.3489 14.3232 16.7959 13.6924 16.7959C13.0616 16.7959 12.5461 16.3489 12.5461 15.7959C12.5461 15.2429 13.0514 14.7959 13.681 14.7959H13.6924ZM13.6812 7.454C14.1535 7.454 14.5368 7.79 14.5368 8.204V12.623C14.5368 13.037 14.1535 13.373 13.6812 13.373C13.209 13.373 12.8257 13.037 12.8257 12.623V8.204C12.8257 7.79 13.209 7.454 13.6812 7.454Z" fill="#1F2C37"/>
</svg>
