<svg width="28" height="24" viewBox="0 0 28 24" fill="none" xmlns="http://www.w3.org/2000/svg">
<path fill-rule="evenodd" clip-rule="evenodd" d="M14.1158 2.00177C17.4465 2.00177 20.159 4.37977 20.159 7.30277L20.1589 8.87937C22.1839 9.49718 23.6405 11.1872 23.6405 13.1706V17.4596C23.6405 19.9646 21.3169 22.0016 18.4596 22.0016H9.74368C6.88629 22.0016 4.56274 19.9646 4.56274 17.4596V13.1706C4.56274 11.1876 6.01884 9.49782 8.04317 8.87972L8.04396 7.30277C8.05081 5.86277 8.68616 4.53377 9.83254 3.53777C10.9801 2.54077 12.4949 1.96377 14.1158 2.00177ZM18.4596 10.1286H9.74368C7.82963 10.1286 6.27375 11.4926 6.27375 13.1706V17.4596C6.27375 19.1376 7.82963 20.5016 9.74368 20.5016H18.4596C20.3725 20.5016 21.9295 19.1376 21.9295 17.4596V13.1706C21.9295 11.4926 20.3725 10.1286 18.4596 10.1286ZM14.1014 13.4544C14.5736 13.4544 14.9569 13.7904 14.9569 14.2044V16.4254C14.9569 16.8394 14.5736 17.1754 14.1014 17.1754C13.6292 17.1754 13.2459 16.8394 13.2459 16.4254V14.2044C13.2459 13.7904 13.6292 13.4544 14.1014 13.4544ZM14.1123 3.50177H14.0941C12.9386 3.50177 11.8561 3.89177 11.0382 4.60277C10.2147 5.31677 9.75954 6.26977 9.75497 7.28577L9.75395 8.628H18.447L18.448 7.30277C18.448 5.20677 16.5032 3.50177 14.1123 3.50177Z" fill="#1F2C37"/>
</svg>
