<svg width="28" height="28" viewBox="0 0 28 28" fill="none" xmlns="http://www.w3.org/2000/svg">
<path fill-rule="evenodd" clip-rule="evenodd" d="M25.1216 13.5724V19.3267C25.1216 22.2039 22.8378 24.5504 20.0516 24.5504L7.35374 24.5504C4.55611 24.5504 2.28374 22.2039 2.28374 19.3031V13.5606C2.28374 10.6834 4.55611 8.3251 7.34233 8.3251H12.8234V15.6359L10.9964 13.7493C10.6538 13.3955 10.0943 13.3955 9.75172 13.7493C9.58043 13.9261 9.5005 14.162 9.5005 14.3978C9.5005 14.6219 9.58043 14.8577 9.75172 15.0346L13.0746 18.4777C13.2345 18.6546 13.4629 18.7489 13.7027 18.7489C13.931 18.7489 14.1594 18.6546 14.3193 18.4777L17.6422 15.0346C17.9848 14.6808 17.9848 14.103 17.6422 13.7493C17.2996 13.3955 16.7401 13.3955 16.3975 13.7493L14.5819 15.6359V8.3251L20.0402 8.3251C22.8378 8.3251 25.1216 10.6834 25.1216 13.5724ZM13.7028 2.85449C14.1824 2.85449 14.582 3.26013 14.582 3.74689L14.582 8.32475L12.8235 8.32475L12.8235 3.74689C12.8235 3.26013 13.2118 2.85449 13.7028 2.85449Z" fill="#33D986"/>
</svg>
