<svg width="24" height="24" viewBox="0 0 24 24" fill="none" xmlns="http://www.w3.org/2000/svg">
<path d="M12 6.44V9.77M12.02 2C8.33999 2 5.35999 4.98 5.35999 8.66V10.76C5.35999 11.44 5.07999 12.46 4.72999 13.04L3.45999 15.16C2.67999 16.47 3.21999 17.93 4.65999 18.41C9.44127 20 14.6087 20 19.39 18.41C19.7055 18.3048 19.9933 18.13 20.2322 17.8986C20.471 17.6671 20.6549 17.385 20.7701 17.073C20.8853 16.761 20.9289 16.4271 20.8977 16.096C20.8666 15.7649 20.7614 15.445 20.59 15.16L19.32 13.04C18.97 12.46 18.69 11.43 18.69 10.76V8.66C18.68 5 15.68 2 12.02 2Z" stroke="#383D50" stroke-width="1.5" stroke-miterlimit="10" stroke-linecap="round"/>
<path d="M15.33 18.8198C15.33 20.6498 13.83 22.1498 12 22.1498C11.09 22.1498 10.25 21.7698 9.65001 21.1698C9.05001 20.5698 8.67001 19.7298 8.67001 18.8198" stroke="#383D50" stroke-width="1.5" stroke-miterlimit="10"/>
</svg>
