<svg width="26" height="19" viewBox="0 0 26 19" fill="none" xmlns="http://www.w3.org/2000/svg">
<path fill-rule="evenodd" clip-rule="evenodd" d="M3.98458 14.2786C3.98458 15.9226 5.5108 17.2606 7.3872 17.2606H8.79708C9.26931 17.2606 9.65258 17.5966 9.65258 18.0106C9.65258 18.4246 9.26931 18.7606 8.79708 18.7606H7.3872C4.56746 18.7606 2.27357 16.7496 2.27357 14.2786L2.27254 10.954L0.99613 10.9549C0.523891 10.9549 0.140625 10.6189 0.140625 10.2049C0.140625 9.7909 0.523891 9.4549 0.99613 9.4549L3.11274 9.45373C3.11818 9.45364 3.12362 9.4536 3.12907 9.4536L3.14516 9.454L22.7999 9.45375C22.8056 9.45365 22.8114 9.4536 22.8172 9.4536L22.8332 9.454L24.9503 9.4549C25.4225 9.4549 25.8058 9.7909 25.8058 10.2049C25.8058 10.6189 25.4225 10.9549 24.9503 10.9549L23.6727 10.954V14.2786C23.6727 16.7496 21.3788 18.7606 18.5591 18.7606H17.1846C16.7123 18.7606 16.3291 18.4246 16.3291 18.0106C16.3291 17.5966 16.7123 17.2606 17.1846 17.2606H18.5591C20.4355 17.2606 21.9617 15.9226 21.9617 14.2786V10.954H3.98355L3.98458 14.2786ZM18.559 0C21.3787 0 23.6726 2.011 23.6726 4.481V5.995C23.6726 6.409 23.2893 6.745 22.8171 6.745C22.3448 6.745 21.9616 6.409 21.9616 5.995V4.481C21.9616 2.838 20.4354 1.5 18.559 1.5H17.1844C16.7122 1.5 16.3289 1.164 16.3289 0.75C16.3289 0.336 16.7122 0 17.1844 0H18.559ZM8.7973 0C9.26954 0 9.65281 0.336 9.65281 0.75C9.65281 1.164 9.26954 1.5 8.7973 1.5H7.38743C5.51103 1.5 3.98481 2.838 3.98481 4.481V5.995C3.98481 6.409 3.60154 6.745 3.1293 6.745C2.65706 6.745 2.2738 6.409 2.2738 5.995V4.481C2.2738 2.011 4.56769 0 7.38743 0H8.7973Z" fill="#1F2C37"/>
</svg>
