<svg width="28" height="29" viewBox="0 0 28 29" fill="none" xmlns="http://www.w3.org/2000/svg">
<path d="M24.8418 3.9214C24.2706 3.33517 23.4253 3.11677 22.637 3.34666L4.25646 8.6917C3.42482 8.92274 2.83537 9.58599 2.67658 10.4285C2.51436 11.2861 3.08097 12.3746 3.82122 12.8298L9.56843 16.3621C10.1579 16.7242 10.9187 16.6334 11.4065 16.1414L17.9876 9.51932C18.3189 9.17447 18.8672 9.17447 19.1985 9.51932C19.5298 9.85266 19.5298 10.3929 19.1985 10.7378L12.606 17.361C12.117 17.8518 12.0256 18.6162 12.3855 19.2093L15.8971 25.0142C16.3084 25.7039 17.0166 26.0947 17.7934 26.0947C17.8848 26.0947 17.9876 26.0947 18.079 26.0832C18.9701 25.9682 19.6783 25.359 19.9411 24.4969L25.3901 6.13987C25.63 5.35823 25.413 4.50763 24.8418 3.9214Z" fill="#33D986"/>
</svg>
