<svg width="33" height="33" viewBox="0 0 33 33" fill="none" xmlns="http://www.w3.org/2000/svg">
<path d="M25.6539 9C27.9557 9 29.8216 7.433 29.8216 5.5C29.8216 3.567 27.9557 2 25.6539 2C23.3521 2 21.4862 3.567 21.4862 5.5C21.4862 7.433 23.3521 9 25.6539 9Z" fill="#2B2B2B"/>
<path d="M24.7676 19.416V20.2032C24.7676 20.9494 24.0623 21.5562 23.1961 21.5562H19.4706C19.4078 22.2922 19.3716 22.9871 19.3716 23.6117C19.3716 23.853 20.2188 24.0307 21.4659 24.1448V31.5343C21.4659 32.3438 22.2277 33 23.1675 33C24.1073 33 24.8691 32.3438 24.8691 31.5343V24.2952C25.2608 24.299 25.6555 24.299 26.0472 24.2952V31.5343C26.0472 32.3438 26.809 33 27.7488 33C28.6886 33 29.4504 32.3438 29.4504 31.5343V24.1448C30.6975 24.0307 31.5447 23.853 31.5447 23.6117C31.5447 21.6225 31.18 18.9254 30.7507 16.4378C29.4732 17.4482 27.5839 18.4027 24.9759 19.3534C24.9079 19.3784 24.838 19.3985 24.7676 19.416ZM23.1961 11.6342C24.062 11.6342 24.7673 12.241 24.7676 12.9871V15.9778C26.7008 15.1935 27.7352 14.5434 28.275 14.1098C28.6307 13.8223 29.0572 13.4115 29.0616 13.0994L29.5847 13.1001C29.5849 13.1017 29.5852 13.103 29.5852 13.1046C29.5818 13.3402 29.4755 13.7565 28.6318 14.4399C27.7972 15.1099 26.2584 15.9518 23.7537 16.8606C23.0874 17.1023 22.7756 17.7637 23.0573 18.3375C23.2686 18.7682 23.7531 19.0269 24.2634 19.0269C24.433 19.0269 24.6058 18.9982 24.772 18.9376C27.4475 17.9621 29.2245 17.0358 30.4101 16.0946C31.5871 15.1665 32.2067 14.1279 32.2031 13.1044C32.2031 13.1041 32.2031 13.1041 32.2031 13.1039C32.2038 12.4615 31.9627 11.8928 31.6478 11.4448C31.1706 10.7692 30.5452 10.3175 30.0449 10.0057C29.542 9.69721 29.1499 9.53531 29.1022 9.51502C29.0103 9.47736 28.9158 9.45211 28.8205 9.43384C28.2752 9.23113 27.259 9 25.4579 9C23.9662 9 23.0173 9.15875 22.4241 9.32831C22.0303 9.42054 20.7994 9.81763 19.5426 11.1365C19.3962 11.2894 19.2502 11.4567 19.1046 11.6337H23.1961V11.6342Z" fill="#2B2B2B"/>
<path d="M3.57231 8C5.54524 8 7.14462 6.20914 7.14462 4C7.14462 1.79086 5.54524 0 3.57231 0C1.59938 0 0 1.79086 0 4C0 6.20914 1.59938 8 3.57231 8Z" fill="#2B2B2B"/>
<path d="M9.77257 21.6522C9.09689 21.652 8.54757 21.0488 8.54737 20.3067V18.8482C8.4994 18.8359 8.45061 18.8258 8.40386 18.8079C6.93289 18.2495 5.7475 17.6526 4.81543 17V31.206C4.81543 32.1967 5.54663 33 6.44848 33C7.35034 33 8.08154 32.1967 8.08154 31.206V22.0119H8.69393V31.206C8.69393 32.1967 9.42514 33 10.327 33C11.2288 33 11.96 32.1967 11.96 31.206V21.6522H9.77257Z" fill="#2B2B2B"/>
<path d="M10.6777 20.9998L22.7685 21C23.3756 20.9998 23.8677 20.6418 23.8677 20.2V19.5556C23.1019 19.5494 22.4154 19.2162 22.1167 18.7012C21.9164 18.3566 21.9123 17.9762 22.1058 17.6296C22.2992 17.283 22.6663 17.0124 23.1403 16.8666C23.3956 16.7884 23.6352 16.7118 23.8677 16.636V13.8C23.8677 13.3582 23.3756 13 22.7685 13H10.6777C10.0706 13 9.57849 13.3582 9.57849 13.8V16.085C9.74337 16.1284 9.91209 16.1722 10.088 16.216C10.5741 16.3376 10.9656 16.5896 11.191 16.926C11.416 17.262 11.4485 17.6422 11.2808 17.9956C11.0264 18.5332 10.3504 18.8988 9.57877 18.9332V20.2002C9.57849 20.6416 10.0706 21 10.6777 20.9998ZM22.1503 13.75H22.8372V14.25H22.1503V13.75Z" fill="#2B2B2B"/>
<path d="M3.01928 16.3347C4.2075 17.2726 5.97346 18.1237 8.61059 18.9379C8.74741 18.98 8.88677 19 9.02384 19C9.55056 19 10.0428 18.705 10.2237 18.2349C10.4517 17.643 10.0994 16.9976 9.43684 16.7937C6.99161 16.0446 5.50233 15.277 4.70528 14.6395C3.90467 13.9871 3.79298 13.57 3.78181 13.2392C3.78181 13.2383 3.78207 13.2371 3.78207 13.236C3.7747 13.0371 3.85111 12.8078 3.9826 12.5745V13.302C4.11079 13.4476 4.46565 13.8311 5.0472 14.3046C5.48558 14.6552 6.50627 15.3146 8.62328 16.0469V13.6247C8.62328 12.8743 9.30636 12.264 10.1466 12.264H15.5323C15.3015 11.7728 15.0591 11.3506 14.8119 10.9913C13.7498 9.42725 12.5134 9.05647 12.193 9.02222C12.0653 9.00249 11.9402 9.0059 11.8181 9.01973C11.7463 9.00839 11.6732 9 11.5978 9H5.25179C5.17666 9 5.10381 9.00862 5.03222 9.01973C4.75249 8.98798 4.46032 9.03356 4.20242 9.17734H4.20192C4.14683 9.20977 3.48381 9.5767 2.77559 10.2364C2.0849 10.8911 1.26246 11.8762 1.24342 13.2349C1.24342 13.2362 1.24317 13.2376 1.24317 13.2389C1.23301 14.2973 1.83512 15.4117 3.01928 16.3347Z" fill="#2B2B2B"/>
</svg>
