<svg width="267" height="292" viewBox="0 0 267 292" fill="none" xmlns="http://www.w3.org/2000/svg">
<g clip-path="url(#clip0_756_5148)">
<path d="M129.685 194.169C129.251 194.673 128.667 195.035 128.012 195.208C127.356 195.381 126.662 195.356 126.022 195.135C125.382 194.915 124.828 194.511 124.435 193.977C124.041 193.443 123.828 192.805 123.823 192.151C123.634 191.875 123.498 191.678 123.309 191.403C121.652 190.794 119.844 190.676 118.117 191.064C116.39 191.452 114.823 192.328 113.616 193.58C112.409 194.832 111.618 196.402 111.343 198.091C111.068 199.779 111.323 201.507 112.075 203.055C116.222 211.819 119.831 221.616 129.016 226.389C91.6172 215.307 62.9141 182.688 57.1743 145.472C58.9926 138.176 57.784 129.905 53.0257 123.849C51.5968 126.995 46.7325 128.21 45.8147 124.094C45.5516 122.428 45.3036 120.762 45.0404 119.097C26.3105 119.363 31.8783 144.175 55.0072 146.089C56.1745 153.135 58.103 160.044 60.7612 166.703C56.0821 161.594 50.2112 157.629 43.6314 155.133C37.361 152.953 30.305 152.993 23.5323 152.537C15.2874 151.974 10.3957 161.426 16.0144 167.26C20.3479 164.902 25.8085 168.898 22.8558 173.356C35.1266 182.289 52.2663 184.301 66.5122 178.848C73.635 191.74 83.5276 203.021 95.5306 211.94C80.8459 202.211 64.9133 212.925 50.8047 217.802C49.8373 218.051 48.9661 218.566 48.2973 219.285C47.6286 220.003 47.1913 220.894 47.0387 221.847C46.8861 222.801 47.0249 223.777 47.4381 224.656C47.8513 225.535 48.521 226.279 49.3656 226.798C51.1466 225.979 53.0075 225.332 54.9212 224.867C55.8238 224.655 56.7725 224.716 57.6373 225.044C58.5022 225.371 59.2407 225.948 59.7518 226.696C60.2629 227.444 60.5214 228.326 60.492 229.22C60.4626 230.115 60.1467 230.98 59.5876 231.695C76.2967 237.667 96.1255 232.579 108.023 219.913C114.642 223.506 121.63 226.427 128.876 228.628L146.603 209.89C146.45 209.633 146.284 209.377 146.125 209.126C144.598 210.96 142.843 212.607 140.9 214.029C139.603 204.488 140.084 198.412 129.686 194.169L129.685 194.169Z" fill="#F2F2F2"/>
<path d="M171.656 216.188C172.255 216.496 172.938 216.62 173.613 216.542C174.287 216.464 174.92 216.188 175.427 215.751C175.933 215.314 176.288 214.739 176.443 214.101C176.598 213.464 176.547 212.796 176.295 212.188C176.362 211.864 176.411 211.632 176.478 211.308C177.774 210.142 179.403 209.376 181.154 209.108C182.905 208.839 184.699 209.081 186.307 209.801C187.915 210.522 189.263 211.689 190.178 213.153C191.093 214.616 191.534 216.31 191.443 218.016C191.033 227.641 191.527 238.026 184.888 245.784C215.186 221.927 229 181.285 219.748 144.731C215.208 138.635 213.09 130.537 215.126 123.198C217.681 125.592 222.661 124.949 221.9 120.804C221.492 119.166 221.069 117.532 220.661 115.894C238.112 109.333 242.668 134.336 221.997 144.516C223.674 151.465 224.592 158.565 224.737 165.698C227.071 159.266 230.955 153.459 236.072 148.756C241.026 144.458 247.577 141.931 253.671 139.047C261.086 135.529 269.316 142.504 266.396 149.95C261.46 149.341 257.967 155.027 262.447 158.082C254.579 170.815 239.493 178.908 224.165 179.037C222.615 193.565 217.869 207.609 210.244 220.231C220.035 205.884 238.985 210.015 253.96 209.403C254.954 209.283 255.962 209.443 256.863 209.865C257.763 210.288 258.517 210.953 259.032 211.781C259.546 212.609 259.8 213.563 259.761 214.528C259.723 215.492 259.394 216.425 258.814 217.212C256.844 217.1 254.868 217.178 252.913 217.443C251.994 217.574 251.14 217.976 250.467 218.594C249.794 219.211 249.336 220.014 249.156 220.893C248.975 221.771 249.081 222.681 249.458 223.5C249.836 224.318 250.467 225.003 251.264 225.462C238.128 237.067 217.771 239.562 201.795 232.157C197.072 237.89 191.743 243.135 185.894 247.807L162.142 236.897C162.182 236.603 162.236 236.305 162.285 236.016C164.418 237.159 166.687 238.046 169.044 238.657C166.51 229.349 163.686 223.897 171.655 216.188H171.656Z" fill="#F2F2F2"/>
<path d="M193.032 292H159.105L153.416 264.894L151.57 292H120.055C120.068 270.713 121.218 249.441 123.503 228.268L123.894 226.986L124.511 224.935L124.901 223.648L131.423 202.067L131.938 200.354H171.209C173.468 202.4 175.553 204.618 177.441 206.988C178.081 207.773 178.749 208.624 179.434 209.541C179.91 210.19 180.402 210.872 180.895 211.587C185.27 217.864 188.541 224.794 190.575 232.098V232.103C190.92 233.352 191.226 234.631 191.492 235.938V235.944C191.73 237.105 191.939 238.284 192.104 239.489C192.228 240.368 192.336 241.257 192.415 242.157C192.887 247.143 192.721 252.167 191.922 257.115L193.032 292Z" fill="#2F2E41"/>
<path d="M34.982 157.545C36.0473 156.339 35.4524 154.165 33.6534 152.689C31.8543 151.214 29.5322 150.995 28.4669 152.201C27.4016 153.407 27.9964 155.581 29.7955 157.057C31.5946 158.532 33.9166 158.751 34.982 157.545Z" fill="#E6E6E6"/>
<path d="M43.5209 151.17C44.6348 150.212 44.9772 148.83 44.2855 148.083C43.5938 147.336 42.1301 147.508 41.0161 148.466C39.9021 149.424 39.5598 150.806 40.2514 151.553C40.9431 152.3 42.4069 152.128 43.5209 151.17Z" fill="#FF6584"/>
<path d="M67.8486 148.966C68.9626 148.008 69.3049 146.626 68.6133 145.879C67.9216 145.132 66.4579 145.304 65.3439 146.262C64.2299 147.22 63.8876 148.602 64.5792 149.349C65.2709 150.095 66.7347 149.924 67.8486 148.966Z" fill="#E6E6E6"/>
<path d="M56.9401 148.724C58.0054 147.518 57.4105 145.344 55.6114 143.869C53.8124 142.393 51.4903 142.174 50.425 143.38C49.3597 144.586 49.9545 146.76 51.7536 148.236C53.5527 149.712 55.8747 149.93 56.9401 148.724Z" fill="#FF6584"/>
<path d="M21.8346 145.515C22.9486 144.557 23.2909 143.175 22.5992 142.428C21.9076 141.682 20.4438 141.853 19.3298 142.811C18.2159 143.769 17.8735 145.151 18.5652 145.898C19.2569 146.645 20.7206 146.473 21.8346 145.515Z" fill="#3F3D56"/>
<path d="M18.6438 135.67C19.7091 134.464 19.1143 132.291 17.3152 130.815C15.5161 129.339 13.1941 129.121 12.1288 130.327C11.0634 131.533 11.6583 133.707 13.4574 135.182C15.2565 136.658 17.5785 136.876 18.6438 135.67Z" fill="#3F3D56"/>
<path d="M134.248 114.992C134.924 114.926 135.562 114.662 136.077 114.235C136.592 113.807 136.958 113.238 137.126 112.603C137.293 111.969 137.255 111.3 137.015 110.688C136.775 110.075 136.345 109.548 135.784 109.179C135.653 108.874 135.559 108.655 135.428 108.351C135.829 106.686 136.737 105.175 138.036 104.011C139.334 102.848 140.964 102.084 142.715 101.819C144.467 101.553 146.261 101.798 147.868 102.521C149.474 103.244 150.82 104.413 151.732 105.879C156.96 114.089 163.379 122.445 162.357 132.452C173.705 96.3691 161.657 55.2083 132.826 29.8345C125.53 27.213 119.086 21.628 116.53 14.4419C120.037 15.057 123.799 11.8472 120.769 8.81502C119.482 7.67445 118.186 6.54562 116.899 5.40498C127.589 -9.41771 145.838 8.89064 134.569 28.4473C139.982 33.3155 144.852 38.7156 149.1 44.5597C147.315 37.9662 147.18 31.0587 148.707 24.4053C150.332 18.1756 154.308 12.5582 157.698 6.89017C161.818 -0.0145375 172.686 1.35394 174.571 9.10385C170.121 11.2507 170.511 17.8473 175.997 17.977C176.833 32.7742 168.992 47.5979 156.342 55.9397C163.462 68.8335 167.648 83.0415 168.621 97.6167C168.448 80.4454 186.569 73.6937 198.647 65.1404C199.402 64.5064 200.332 64.0978 201.324 63.9645C202.316 63.8312 203.326 63.9789 204.233 64.3896C205.139 64.8003 205.901 65.4563 206.427 66.2776C206.953 67.0988 207.22 68.0498 207.194 69.0145C205.494 69.9805 203.898 71.1068 202.43 72.3768C201.742 72.9796 201.266 73.7724 201.064 74.6465C200.863 75.5207 200.948 76.4334 201.306 77.2595C201.664 78.0857 202.279 78.7848 203.066 79.2611C203.852 79.7375 204.773 79.9676 205.701 79.9201C201.51 96.6119 186.055 109.619 168.507 112.056C167.904 119.353 166.514 126.57 164.362 133.591L138.332 137.295C138.196 137.029 138.068 136.754 137.941 136.487C140.373 136.29 142.771 135.807 145.08 135.048C137.591 128.683 132.093 125.674 134.247 114.993L134.248 114.992Z" fill="#F2F2F2"/>
<path d="M160.428 106.95C148.577 106.95 142.149 105.554 139.904 102.575C137.924 99.9472 139.252 96.4795 140.789 92.4643C141.894 89.5783 143.147 86.3074 143.147 83.07C143.147 67.3243 151.432 59.3403 167.772 59.3403C175.902 59.3403 184.632 63.502 191.123 70.4729C197.025 76.8102 199.965 84.3949 199.19 91.2819C198.554 96.9302 195.825 100.645 190.603 102.972L190.298 103.108L190.211 102.795C189.76 101.174 188.997 99.6489 187.961 98.2995C187.861 100.418 187.307 102.493 186.334 104.395L186.278 104.503L186.158 104.536C180.248 106.159 173.234 106.598 167.783 106.799C165.13 106.899 162.679 106.949 160.428 106.95Z" fill="#2F2E41"/>
<path d="M163.658 128.888C163.203 127.601 162.437 126.438 161.423 125.494C160.409 124.549 159.175 123.852 157.825 123.459C156.475 123.066 155.047 122.989 153.66 123.235C152.273 123.48 150.966 124.041 149.849 124.87L110.869 147.327L98.6717 118.648C99.7021 117.192 100.227 115.458 100.172 113.696C100.117 111.934 99.4837 110.234 98.3639 108.84C97.244 107.446 95.6947 106.43 93.9383 105.937C92.1819 105.443 90.3086 105.499 88.587 106.095C86.8655 106.692 85.3841 107.798 84.3554 109.256C83.3267 110.714 82.8036 112.448 82.861 114.21C82.9183 115.972 83.5533 117.671 84.6748 119.064C85.7963 120.457 87.3468 121.471 89.1037 121.962C89.8555 130.232 94.0336 167.197 108.568 165.853C120.785 164.724 151.125 145.253 160.549 138.502C162.057 137.423 163.17 135.91 163.729 134.183C164.287 132.455 164.262 130.601 163.658 128.888Z" fill="#FFB6B6"/>
<path d="M83.4703 140.996C84.5843 140.038 84.9266 138.656 84.235 137.909C83.5433 137.162 82.0795 137.333 80.9655 138.292C79.8516 139.25 79.5092 140.632 80.2009 141.378C80.8926 142.125 82.3563 141.954 83.4703 140.996Z" fill="#3F3D56"/>
<path d="M39.684 137.162C40.798 136.204 41.1404 134.822 40.4487 134.075C39.757 133.328 38.2933 133.499 37.1793 134.458C36.0653 135.416 35.7229 136.798 36.4146 137.544C37.1063 138.291 38.5701 138.12 39.684 137.162Z" fill="#E6E6E6"/>
<path d="M154.696 111.333L173.387 110.405L182.068 123.624C182.068 123.624 198.402 126.255 197.27 144.802C196.138 163.35 177.396 179.625 177.396 179.625L178.197 189.284L176.806 193.115L176.984 195.266L178.882 197.544L179.078 199.9L177.396 203.628L179.683 207.197L131.602 202.708L129.843 196.536L132.408 193.222L130.976 188.899L133.129 184.741L134.252 171.534C134.252 171.534 121.966 153.746 136.071 140.348L141.732 131.075L148.066 123.628L154.696 111.333Z" fill="#246BFD"/>
<path d="M2.55641 94.0421C3.5672 93.8116 4.10781 92.4897 3.76389 91.0895C3.41997 89.6893 2.32177 88.7412 1.31097 88.9717C0.300181 89.2023 -0.240426 90.5242 0.103491 91.9244C0.447407 93.3245 1.54561 94.2727 2.55641 94.0421Z" fill="#3F3D56"/>
<path d="M2.72145 77.0099C3.73224 76.7794 4.27286 75.4574 3.92895 74.0573C3.58503 72.6571 2.48681 71.709 1.47601 71.9395C0.46522 72.17 -0.0753867 73.492 0.26853 74.8921C0.612446 76.2923 1.71065 77.2405 2.72145 77.0099Z" fill="#E6E6E6"/>
<path d="M163.988 107.601C174.926 107.601 183.793 99.0563 183.793 88.5164C183.793 77.9764 174.926 69.4321 163.988 69.4321C153.05 69.4321 144.183 77.9764 144.183 88.5164C144.183 99.0563 153.05 107.601 163.988 107.601Z" fill="#FFB6B6"/>
<path d="M161.336 87.3594C159.63 87.3594 157.924 87.313 156.219 87.2203L155.915 87.2038L155.955 86.9124C156.206 85.0908 156.064 83.2388 155.54 81.4722C154.648 83.4838 153.322 85.289 151.649 86.7675L151.554 86.8509L151.427 86.8375C146.797 86.3495 142.209 85.5432 137.699 84.4249L137.526 84.3822L137.491 84.2139C137.154 82.6198 136.98 80.9977 136.971 79.3709C136.971 74.289 138.883 70.0117 142.355 67.3271C146.134 64.4048 151.551 63.5061 157.614 64.795H177C179.131 64.7973 181.174 65.6142 182.681 67.0664C184.189 68.5186 185.036 70.4876 185.039 72.5414V84.3713L184.827 84.4246C177.159 86.3665 169.265 87.3528 161.336 87.3594Z" fill="#2F2E41"/>
<path d="M10.747 66.9498C12.9503 66.1279 14.2554 64.2644 13.6621 62.7874C13.0688 61.3104 10.8017 60.7794 8.59841 61.6012C6.39513 62.4231 5.08998 64.2867 5.6833 65.7636C6.27661 67.2406 8.5437 67.7716 10.747 66.9498Z" fill="#FF6584"/>
<path d="M26.9041 58.7643C27.9148 58.5337 28.4555 57.2118 28.1115 55.8117C27.7676 54.4115 26.6694 53.4634 25.6586 53.6939C24.6478 53.9244 24.1072 55.2464 24.4511 56.6465C24.7951 58.0467 25.8933 58.9948 26.9041 58.7643Z" fill="#E6E6E6"/>
<path d="M12.2936 55.3454C13.3044 55.1148 13.845 53.7929 13.5011 52.3927C13.1572 50.9926 12.0589 50.0444 11.0482 50.2749C10.0374 50.5055 9.49676 51.8274 9.84067 53.2276C10.1846 54.6277 11.2828 55.5759 12.2936 55.3454Z" fill="#FF6584"/>
<path d="M13.1527 44.1431C15.356 43.3213 16.6611 41.4577 16.0678 39.9808C15.4745 38.5038 13.2074 37.9728 11.0041 38.7946C8.80081 39.6165 7.49568 41.48 8.089 42.957C8.68231 44.4339 10.9494 44.965 13.1527 44.1431Z" fill="#E6E6E6"/>
<path d="M150.717 43.5794C152.192 42.8805 152.543 40.6577 151.5 38.6148C150.457 36.5718 148.416 35.4823 146.942 36.1812C145.467 36.8802 145.116 39.1029 146.159 41.1459C147.202 43.1888 149.243 44.2784 150.717 43.5794Z" fill="#3F3D56"/>
<path d="M27.7795 39.6618C28.7903 39.4312 29.3309 38.1093 28.987 36.7091C28.6431 35.309 27.5449 34.3608 26.5341 34.5914C25.5233 34.8219 24.9827 36.1438 25.3266 37.544C25.6705 38.9441 26.7688 39.8923 27.7795 39.6618Z" fill="#3F3D56"/>
<path d="M40.8938 40.7139C43.097 39.8921 44.4022 38.0285 43.8089 36.5516C43.2156 35.0746 40.9485 34.5436 38.7452 35.3654C36.5419 36.1873 35.2368 38.0508 35.8301 39.5278C36.4234 41.0047 38.6905 41.5358 40.8938 40.7139Z" fill="#3F3D56"/>
<path d="M26.1995 66.1315C25.3317 66.4373 24.6252 67.0624 24.235 67.8696C23.8449 68.6768 23.8029 69.6001 24.1184 70.4371L45.0321 125.735C45.3495 126.571 45.9982 127.252 46.8358 127.628C47.6735 128.004 48.6317 128.044 49.5002 127.74L130.67 99.2347C131.538 98.9289 132.244 98.3038 132.635 97.4966C133.025 96.6894 133.067 95.766 132.751 94.9291L111.837 39.6314C111.52 38.7951 110.871 38.1143 110.034 37.7383C109.196 37.3623 108.238 37.3218 107.369 37.6258L26.1995 66.1315Z" fill="#CCCCCC"/>
<path d="M100.46 106.796L50.7761 124.244C49.8413 124.571 48.81 124.528 47.9084 124.123C47.0069 123.718 46.3087 122.985 45.9671 122.085L26.9985 71.9309C26.659 71.0301 26.7042 70.0363 27.1241 69.1675C27.544 68.2988 28.3044 67.626 29.2385 67.2968L105.822 40.402C106.756 40.0748 107.788 40.1183 108.689 40.523C109.591 40.9277 110.289 41.6604 110.631 42.5605L119.796 66.7947C122.727 74.5704 122.337 83.1488 118.712 90.6478C115.087 98.1468 108.523 103.954 100.46 106.796Z" fill="white"/>
<path d="M64.7099 70.5632L52.9032 74.7095C52.7551 74.7615 52.5979 74.7849 52.4405 74.7783C52.283 74.7718 52.1284 74.7354 51.9856 74.6713C51.8427 74.6071 51.7144 74.5165 51.6079 74.4046C51.5014 74.2927 51.4188 74.1617 51.3648 74.019C51.3108 73.8763 51.2866 73.7248 51.2934 73.5731C51.3002 73.4214 51.3379 73.2724 51.4045 73.1348C51.471 72.9971 51.5651 72.8734 51.6812 72.7708C51.7973 72.6682 51.9333 72.5886 52.0814 72.5366L63.8881 68.3902C64.1871 68.2852 64.5172 68.299 64.8057 68.4285C65.0942 68.558 65.3175 68.7926 65.4265 69.0807C65.5354 69.3689 65.5212 69.6869 65.3868 69.9649C65.2524 70.243 65.0089 70.4582 64.7099 70.5632H64.7099Z" fill="#246BFD"/>
<path d="M92.8572 65.7121L54.5838 79.1531C54.4357 79.2054 54.2784 79.2289 54.1208 79.2225C53.9632 79.2161 53.8085 79.1798 53.6655 79.1157C53.5225 79.0516 53.394 78.961 53.2874 78.849C53.1807 78.737 53.098 78.6059 53.044 78.4631C52.99 78.3203 52.9658 78.1687 52.9726 78.0168C52.9795 77.865 53.0173 77.716 53.084 77.5782C53.1507 77.4405 53.2449 77.3168 53.3612 77.2142C53.4776 77.1116 53.6138 77.0321 53.762 76.9802L92.0354 63.5391C92.1834 63.4871 92.3407 63.4638 92.4981 63.4703C92.6556 63.4769 92.8101 63.5133 92.953 63.5774C93.0958 63.6415 93.2242 63.7321 93.3307 63.844C93.4372 63.9559 93.5198 64.087 93.5738 64.2297C93.6277 64.3723 93.652 64.5239 93.6452 64.6756C93.6384 64.8273 93.6006 64.9762 93.5341 65.1139C93.4676 65.2515 93.3735 65.3752 93.2574 65.4779C93.1412 65.5805 93.0052 65.6601 92.8572 65.7121Z" fill="#246BFD"/>
<path d="M94.7863 70.8127L56.5129 84.2537C56.3649 84.3057 56.2076 84.3291 56.0502 84.3225C55.8927 84.316 55.7382 84.2796 55.5953 84.2155C55.4524 84.1514 55.3241 84.0608 55.2176 83.9488C55.1111 83.8369 55.0285 83.7059 54.9745 83.5632C54.9206 83.4205 54.8963 83.269 54.9031 83.1173C54.9099 82.9656 54.9477 82.8166 55.0142 82.679C55.0807 82.5413 55.1748 82.4176 55.2909 82.315C55.4071 82.2124 55.543 82.1328 55.6911 82.0808L93.9645 68.6397C94.2634 68.5352 94.5932 68.5492 94.8814 68.6788C95.1696 68.8083 95.3926 69.0428 95.5015 69.3307C95.6104 69.6186 95.5962 69.9364 95.4621 70.2143C95.328 70.4922 95.0849 70.7074 94.7863 70.8127Z" fill="#246BFD"/>
<path d="M96.7154 75.9137L58.4421 89.3548C58.294 89.407 58.1366 89.4306 57.979 89.4242C57.8215 89.4177 57.6667 89.3814 57.5237 89.3174C57.3807 89.2533 57.2522 89.1627 57.1456 89.0507C57.039 88.9387 56.9563 88.8076 56.9023 88.6648C56.8483 88.522 56.824 88.3703 56.8309 88.2185C56.8377 88.0667 56.8756 87.9176 56.9423 87.7799C57.009 87.6422 57.1032 87.5185 57.2195 87.4159C57.3358 87.3132 57.472 87.2337 57.6202 87.1819L95.8936 73.7408C96.0417 73.6888 96.1989 73.6654 96.3564 73.672C96.5138 73.6785 96.6684 73.7149 96.8112 73.779C96.9541 73.8432 97.0824 73.9338 97.1889 74.0457C97.2955 74.1576 97.3781 74.2886 97.432 74.4313C97.486 74.574 97.5103 74.7255 97.5034 74.8772C97.4966 75.0289 97.4589 75.1779 97.3924 75.3155C97.3258 75.4532 97.2318 75.5769 97.1156 75.6795C96.9995 75.7822 96.8635 75.8618 96.7154 75.9137Z" fill="#246BFD"/>
<path d="M98.6446 81.0143L60.3712 94.4554C60.0721 94.5604 59.7421 94.5467 59.4535 94.4172C59.165 94.2877 58.9417 94.053 58.8328 93.7649C58.7238 93.4767 58.7381 93.1587 58.8724 92.8807C59.0068 92.6027 59.2503 92.3875 59.5493 92.2825L97.8227 78.8414C97.9708 78.7894 98.1281 78.766 98.2855 78.7726C98.4429 78.7791 98.5975 78.8155 98.7403 78.8796C98.8832 78.9437 99.0116 79.0344 99.1181 79.1463C99.2246 79.2582 99.3072 79.3892 99.3611 79.5319C99.4151 79.6746 99.4394 79.8261 99.4326 79.9778C99.4258 80.1295 99.388 80.2785 99.3214 80.4161C99.2549 80.5538 99.1609 80.6775 99.0447 80.7801C98.9286 80.8827 98.7926 80.9623 98.6445 81.0143H98.6446Z" fill="#246BFD"/>
<path d="M220.086 95.1804L199.131 143.502C198.237 145.546 196.544 147.17 194.419 148.023C192.293 148.876 189.905 148.889 187.769 148.06C186.664 147.631 185.661 146.99 184.822 146.175C183.983 145.361 183.325 144.39 182.887 143.322C182.45 142.255 182.243 141.112 182.279 139.965C182.315 138.818 182.593 137.689 183.096 136.649L206.46 87.0981L219.339 56.4125C218.226 55.3428 217.482 53.969 217.208 52.4775C216.933 50.9861 217.142 49.4494 217.805 48.0762C218.469 46.703 219.555 45.5599 220.916 44.8022C222.277 44.0445 223.847 43.709 225.413 43.8411C226.979 43.9733 228.465 44.5667 229.668 45.5409C230.872 46.515 231.735 47.8226 232.141 49.286C232.547 50.7495 232.475 52.2977 231.936 53.7205C231.396 55.1432 230.415 56.3715 229.127 57.2385L220.086 95.1804Z" fill="#FFB6B6"/>
<path d="M129.432 30.1988C130.849 29.746 131.733 28.6087 131.406 27.6586C131.079 26.7085 129.665 26.3054 128.248 26.7582C126.83 27.211 125.947 28.3483 126.273 29.2984C126.6 30.2485 128.014 30.6516 129.432 30.1988Z" fill="#E6E6E6"/>
<path d="M149.256 29.3653C150.673 28.9125 151.557 27.7752 151.23 26.8251C150.903 25.875 149.489 25.4719 148.072 25.9247C146.655 26.3776 145.771 27.5148 146.098 28.4649C146.425 29.415 147.838 29.8181 149.256 29.3653Z" fill="#3F3D56"/>
<path d="M131.686 15.8741C133.103 15.4212 133.987 14.284 133.66 13.3339C133.333 12.3838 131.919 11.9807 130.502 12.4335C129.085 12.8863 128.201 14.0236 128.527 14.9737C128.854 15.9238 130.268 16.3269 131.686 15.8741Z" fill="#FF6584"/>
<path d="M144.742 17.2508C146.217 16.5519 146.567 14.3291 145.524 12.2862C144.482 10.2432 142.441 9.15369 140.966 9.85263C139.491 10.5516 139.141 12.7743 140.184 14.8172C141.226 16.8602 143.267 17.9497 144.742 17.2508Z" fill="#E6E6E6"/>
<path d="M120.954 16.9398C122.429 16.2408 122.78 14.0181 121.737 11.9751C120.694 9.93219 118.653 8.84264 117.179 9.54158C115.704 10.2405 115.353 12.4633 116.396 14.5062C117.439 16.5492 119.48 17.6387 120.954 16.9398Z" fill="#FF6584"/>
<path d="M90.8294 9.91801C92.2467 9.4652 93.1307 8.32794 92.8038 7.37786C92.4769 6.42779 91.0629 6.02468 89.6457 6.47749C88.2284 6.9303 87.3444 8.06755 87.6713 9.01762C87.9982 9.9677 89.4121 10.3708 90.8294 9.91801Z" fill="#3F3D56"/>
<path d="M108.451 8.58402C109.868 8.13121 110.752 6.99396 110.425 6.04388C110.099 5.09381 108.685 4.69068 107.267 5.14349C105.85 5.5963 104.966 6.73357 105.293 7.68365C105.62 8.63372 107.034 9.03683 108.451 8.58402Z" fill="#E6E6E6"/>
</g>
<defs>
<clipPath id="clip0_756_5148">
<rect width="267" height="292" fill="white"/>
</clipPath>
</defs>
</svg>
