<svg width="239" height="272" viewBox="0 0 239 272" fill="none" xmlns="http://www.w3.org/2000/svg">
<g filter="url(#filter0_d_333_3531)">
<path d="M174.42 249.507L168.428 249.506L165.578 226.396L174.421 226.396L174.42 249.507Z" fill="#A0616A"/>
<path d="M174.631 255.757L156.205 255.757V255.524C156.205 253.622 156.961 251.798 158.306 250.453C159.651 249.108 161.475 248.352 163.377 248.352H163.377L166.743 245.799L173.022 248.353L174.631 248.353L174.631 255.757Z" fill="#2F2E41"/>
<path d="M234.706 249.507L228.715 249.506L225.865 226.396L234.708 226.396L234.706 249.507Z" fill="#A0616A"/>
<path d="M234.917 255.757L216.492 255.757V255.524C216.492 253.622 217.248 251.798 218.593 250.453C219.938 249.108 221.762 248.352 223.664 248.352H223.664L227.03 245.799L233.309 248.353L234.918 248.353L234.917 255.757Z" fill="#2F2E41"/>
<path d="M179.308 116.734C179.308 116.734 175.373 120.911 175.207 123.62C175.041 126.329 177.091 121.408 175.041 126.329C172.99 131.251 172.99 127.97 172.99 131.251C172.99 134.532 168.645 137.735 168.645 137.735L161.48 167.215L165.608 236.241H174.631C183.016 210.681 186.917 190.944 182.423 182.105L194.953 154.256C194.953 154.256 218.629 228.343 219.597 229.216C220.564 230.089 220.564 228.859 220.564 230.089C220.564 231.319 219.334 230.089 220.564 231.319L226.306 237.061L234.918 236.241C234.918 236.241 236.071 182.601 226.472 173.33C226.472 173.33 228.688 144.623 226.472 144.704C224.255 144.785 224.255 148.476 224.255 144.785C224.255 141.094 226.882 140.109 226.882 140.109L219.5 114.182L179.308 116.734Z" fill="#229397"/>
<path d="M225.798 59.5874L217.459 94.5014L219.428 107.488L221.791 123.046L213.621 122.517L200.978 121.696L177.503 120.176L175.449 51.2766L186.219 40.0231L188.143 34.5595L203.712 34.4639L207.437 41.0247L217.014 43.748C218.245 44.5291 219.402 45.4219 220.469 46.4151C222.832 48.6039 224.925 51.3835 225.904 54.2307C226.2 55.0604 226.387 55.9246 226.461 56.8021L225.798 59.5874Z" fill="#F9A000"/>
<path d="M153.326 148.174C153.954 147.827 154.498 147.348 154.922 146.77C155.346 146.192 155.64 145.529 155.782 144.827C155.925 144.124 155.913 143.399 155.748 142.702C155.583 142.004 155.268 141.351 154.826 140.787L166.702 119.166L161.529 114.41L147.611 140.193C146.717 141.009 146.154 142.124 146.027 143.327C145.901 144.53 146.22 145.738 146.924 146.722C147.629 147.706 148.669 148.397 149.849 148.664C151.029 148.932 152.266 148.757 153.326 148.174Z" fill="#E6E6E6"/>
<path d="M182.293 47.0645L179.524 96.6558L166.187 127.821L157.507 139.332L158.493 134.116L152.51 131.122L151.948 130.843L163.435 86.2635L164.493 68.9401C164.676 65.959 165.475 63.0481 166.84 60.3917C168.206 57.7353 170.107 55.3911 172.425 53.5074L179.069 48.1102L182.293 47.0645Z" fill="#E6E6E6"/>
<path d="M153.326 148.174C153.954 147.827 154.498 147.348 154.922 146.77C155.346 146.192 155.64 145.529 155.782 144.827C155.925 144.124 155.913 143.399 155.748 142.702C155.583 142.004 155.268 141.351 154.826 140.787L166.702 119.166L161.529 114.41L147.611 140.193C146.717 141.009 146.154 142.124 146.027 143.327C145.901 144.53 146.22 145.738 146.924 146.722C147.629 147.706 148.669 148.397 149.849 148.664C151.029 148.932 152.266 148.757 153.326 148.174Z" fill="#FFB8B8"/>
<path d="M182.293 47.0645L179.524 96.6558L166.187 127.821L157.507 139.332L158.493 134.116L152.51 131.122L151.948 130.843L163.435 86.2635L164.493 68.9401C164.676 65.959 165.475 63.0481 166.84 60.3917C168.206 57.7353 170.107 55.3911 172.425 53.5074L179.069 48.1102L182.293 47.0645Z" fill="#E6E6E6"/>
<path d="M195.359 31.5642C202.383 31.5642 208.077 25.8704 208.077 18.8468C208.077 11.8232 202.383 6.12939 195.359 6.12939C188.336 6.12939 182.642 11.8232 182.642 18.8468C182.642 25.8704 188.336 31.5642 195.359 31.5642Z" fill="#FFB8B8"/>
<path d="M205.792 25.4199C205.892 26.1797 204.517 26.26 204.207 25.5593C203.897 24.8585 204.299 24.0643 204.69 23.4053L205.597 21.8756C205.768 21.5875 205.868 21.2627 205.888 20.9284C205.908 20.594 205.847 20.2598 205.712 19.9534C205.576 19.6471 205.37 19.3776 205.109 19.1674C204.848 18.9571 204.541 18.8122 204.213 18.7448C205.043 16.8778 204.142 14.5475 202.488 13.348C200.834 12.1484 198.373 14.3929 196.367 14.7778C194.36 15.1627 192.754 13.6269 190.925 14.5374L192.024 12.0041L185.941 14.6248L187.354 11.7751C185.819 11.8587 185.165 13.7284 184.859 15.2351C184.534 16.8404 183.678 18.8471 181.933 18.5146C181.519 18.4223 181.14 18.215 180.839 17.9165C180.537 17.6181 180.326 17.2406 180.23 16.8276C178.882 11.6279 182.797 5.94342 187.987 5.03144C188.542 3.49904 189.573 2.18464 190.93 1.28079C192.286 0.376937 193.896 -0.068878 195.524 0.00863798C197.152 0.086154 198.712 0.682928 199.977 1.71155C201.241 2.74018 202.143 4.1466 202.55 5.72481L204.251 3.64139L204.583 6.59335C205.806 6.46337 206.961 7.32671 207.555 8.40333C208.15 9.47995 207.869 10.87 208.439 11.9593C210.996 16.8417 210.15 22.3382 206.202 26.0827" fill="#2F2E41"/>
<path d="M188.258 68.7739H89.4189C82.9875 68.7739 77.7738 73.9876 77.7738 80.419V131.409C77.7738 137.84 82.9875 143.054 89.4189 143.054H188.258C194.689 143.054 199.903 137.84 199.903 131.409V80.419C199.903 73.9876 194.689 68.7739 188.258 68.7739Z" fill="#229397"/>
<path d="M187.92 143.151H89.0806C85.8777 143.147 82.8071 141.873 80.5423 139.608C78.2776 137.344 77.0036 134.273 77 131.07V80.0806C77.0036 76.8777 78.2776 73.8071 80.5423 71.5423C82.8071 69.2776 85.8777 68.0036 89.0806 68H187.92C191.122 68.0037 194.193 69.2776 196.458 71.5424C198.722 73.8071 199.996 76.8777 200 80.0806V131.07C199.996 134.273 198.722 137.344 196.458 139.608C194.193 141.873 191.122 143.147 187.92 143.151ZM89.0806 68.8709C86.1076 68.8709 83.2563 70.0519 81.1541 72.1541C79.0519 74.2563 77.8709 77.1076 77.8709 80.0806V99.1391C77.8709 110.581 82.416 121.554 90.5065 129.644C98.597 137.735 109.57 142.28 121.012 142.28H187.92C190.893 142.28 193.744 141.099 195.846 138.997C197.948 136.895 199.129 134.043 199.129 131.07V80.0806C199.129 78.6085 198.839 77.1508 198.276 75.7908C197.713 74.4308 196.887 73.195 195.846 72.1541C194.805 71.1132 193.569 70.2875 192.209 69.7242C190.849 69.1608 189.392 68.8709 187.919 68.8709L89.0806 68.8709Z" fill="#F3F3F3"/>
<path d="M120.174 125.265H97.0964C96.2547 125.265 95.5724 125.947 95.5724 126.789C95.5724 127.631 96.2547 128.313 97.0964 128.313H120.174C121.016 128.313 121.698 127.631 121.698 126.789C121.698 125.947 121.016 125.265 120.174 125.265Z" fill="#F3F3F3"/>
<path d="M113.207 94.311H97.0964C96.2547 94.311 95.5724 94.9934 95.5724 95.835V104.108C95.5724 104.95 96.2547 105.632 97.0964 105.632H113.207C114.049 105.632 114.731 104.95 114.731 104.108V95.835C114.731 94.9934 114.049 94.311 113.207 94.311Z" fill="#F3F3F3"/>
<path d="M183.891 133.202C188.219 133.202 191.728 129.693 191.728 125.364C191.728 121.035 188.219 117.526 183.891 117.526C179.562 117.526 176.053 121.035 176.053 125.364C176.053 129.693 179.562 133.202 183.891 133.202Z" fill="#F3F3F3"/>
<path d="M116.532 61.8427C116.452 62.1935 116.4 62.5501 116.377 62.9091L88.4468 79.0217L81.6581 75.1135L74.4209 84.588L88.9439 94.9392L120.808 69.8017C122.107 70.2826 123.522 70.3565 124.865 70.0135C126.208 69.6705 127.414 68.9269 128.324 67.8816C129.233 66.8363 129.803 65.5388 129.957 64.1617C130.112 62.7846 129.843 61.3932 129.187 60.1724C128.532 58.9517 127.52 57.9595 126.287 57.3279C125.053 56.6962 123.657 56.455 122.283 56.6363C120.909 56.8176 119.623 57.4129 118.596 58.3429C117.569 59.2729 116.849 60.4936 116.532 61.8427Z" fill="#FFB8B8"/>
<path d="M52.924 71.7278L74.9156 87.4017L84.7514 75.0698L63.3736 57.9165C62.4538 57.1785 61.3931 56.6361 60.2564 56.3224C59.1197 56.0087 57.9309 55.9304 56.7629 56.0922C55.5949 56.2541 54.4722 56.6527 53.4636 57.2637C52.455 57.8746 51.5818 58.685 50.8974 59.6453C49.5639 61.5163 49.0283 63.8404 49.4083 66.1063C49.7884 68.3722 51.0531 70.3943 52.924 71.7278Z" fill="#229397"/>
<path d="M7.52795 250.57L15.239 252.59L26.7016 223.81L15.3216 220.828L7.52795 250.57Z" fill="#FFB8B8"/>
<path d="M28.2335 263.646L3.99995 257.297L6.4533 247.934L21.3239 251.83C23.8071 252.481 25.9301 254.091 27.2259 256.307C28.5217 258.523 28.8842 261.163 28.2335 263.646Z" fill="#2F2E41"/>
<path d="M76.0712 256.06L83.9182 254.658L82.2459 223.725L70.665 225.793L76.0712 256.06Z" fill="#FFB8B8"/>
<path d="M100.353 259.241L75.6915 263.646L73.9894 254.118L89.1225 251.415C90.3738 251.191 91.6568 251.217 92.8984 251.489C94.1399 251.761 95.3157 252.276 96.3585 253.002C97.4013 253.729 98.2908 254.654 98.9761 255.724C99.6615 256.795 100.129 257.99 100.353 259.241Z" fill="#2F2E41"/>
<path d="M60.62 28.5688C62.5536 29.0395 64.1267 31.0098 65.0714 33.2923C65.9427 35.6897 66.5327 38.1802 66.8295 40.7137C67.5718 45.4318 68.2847 50.5396 66.7494 54.9094C64.9499 60.031 60.1552 62.7135 55.9962 61.4529C51.8372 60.1923 48.5294 55.4605 47.3992 50.0137C46.3704 44.5101 47.0333 38.8239 49.3006 33.7045C50.482 31.0147 52.1105 28.5332 54.2747 27.3196C55.3362 26.6777 56.6015 26.4615 57.816 26.7146C59.0305 26.9676 60.104 27.6712 60.8209 28.6837" fill="#2F2E41"/>
<path d="M71.5604 113.993L86.4993 247.795L74.161 252.48L51.405 162.756L19.7232 244.794L6.2179 245.544C6.2179 245.544 24.7478 117.894 38.4805 114.993L71.5604 113.993Z" fill="#F9A000"/>
<path d="M59.0126 45.6444C67.832 45.6444 74.9816 38.4949 74.9816 29.6755C74.9816 20.8561 67.832 13.7065 59.0126 13.7065C50.1932 13.7065 43.0437 20.8561 43.0437 29.6755C43.0437 38.4949 50.1932 45.6444 59.0126 45.6444Z" fill="#FFB8B8"/>
<path d="M65.8667 52.3437L48.61 50.0928C48.61 50.0928 37.3556 63.5981 38.1059 86.8572C38.8562 110.116 36.2301 117.244 36.2301 117.244L72.211 117.894C67.0096 110.742 88.7654 69.6662 65.8667 52.3437Z" fill="#229397"/>
<path d="M75.1364 121.145C74.7766 121.148 74.4176 121.179 74.0627 121.238L51.986 97.7368L54.2369 90.2338L43.3576 85.3569L36.6047 101.863L68.3671 127.129C68.1963 128.504 68.4483 129.898 69.0894 131.127C69.7306 132.355 70.7305 133.36 71.9562 134.006C73.182 134.652 74.5755 134.91 75.9513 134.745C77.3272 134.58 78.6202 134 79.6585 133.083C80.6968 132.165 81.431 130.953 81.7637 129.608C82.0963 128.262 82.0116 126.848 81.5207 125.552C81.0298 124.256 80.156 123.14 79.0156 122.353C77.8752 121.566 76.5221 121.145 75.1364 121.145Z" fill="#FFB8B8"/>
<path d="M50.9565 61.4874L40.7313 86.4823L54.9869 93.2349L66.7928 68.4989C67.3007 67.4347 67.586 66.278 67.6312 65.0997C67.6764 63.9214 67.4806 62.7462 67.0557 61.6462C66.6309 60.5462 65.9859 59.5446 65.1604 58.7026C64.3348 57.8606 63.3461 57.196 62.2547 56.7495C61.2017 56.3187 60.0743 56.0996 58.9366 56.1046C57.799 56.1096 56.6735 56.3385 55.6243 56.7785C54.5752 57.2185 53.623 57.8607 52.8221 58.6687C52.0212 59.4767 51.3873 60.4345 50.9565 61.4874Z" fill="#229397"/>
<path d="M54.8352 44.1934C57.3374 42.7499 57.6043 39.2679 57.2643 36.3993C56.9242 33.5307 56.3562 30.3328 58.0423 27.9874C60.0548 25.188 64.0979 25.1323 67.5443 25.0409C70.9908 24.9496 75.1877 23.9404 76.0807 20.6104C76.6708 18.4101 75.4083 16.0489 73.5967 14.6677C71.7851 13.2866 69.5187 12.6759 67.3158 12.0956C62.3879 10.7974 57.2996 9.48823 52.2537 10.2018C47.2559 10.9085 42.7372 13.5546 39.6755 17.5675C36.6138 21.5804 35.2552 26.6375 35.8936 31.6445C36.7103 38.0494 37.8948 40.8462 37.1173 43.6702C35.6692 48.9303 29.4251 52.3094 29.3008 57.7638C29.2035 62.0302 32.972 65.3215 36.6488 67.4878C39.5652 69.2062 42.7128 70.6642 46.0738 71.0665C49.4347 71.4687 53.0533 70.6986 55.557 68.4205C58.7863 65.4824 59.5851 60.5737 58.6591 56.3072C57.7331 52.0407 55.3578 48.2519 53.0081 44.5723" fill="#2F2E41"/>
<path d="M200.776 145.164C201.391 144.795 201.918 144.297 202.321 143.705C202.724 143.112 202.994 142.439 203.112 141.732C203.229 141.025 203.192 140.301 203.002 139.609C202.812 138.918 202.474 138.276 202.012 137.729L213.113 115.699L207.774 111.13L194.781 137.392C193.917 138.238 193.393 139.373 193.309 140.58C193.225 141.787 193.587 142.983 194.326 143.941C195.065 144.899 196.13 145.552 197.319 145.778C198.507 146.003 199.737 145.785 200.776 145.164Z" fill="#FFB8B8"/>
<path d="M225.905 54.2306L226.462 56.802L225.128 92.7458L219.428 107.488L213.621 122.517L212.907 124.368L204.641 136.179L205.44 130.929L199.352 128.149L198.784 127.896L200.978 121.695L206.025 107.449L208.209 101.282L208.681 82.9327L209.12 65.5854C209.196 62.5999 209.891 59.6627 211.161 56.9595C212.431 54.2564 214.248 51.8461 216.497 49.8811L220.469 46.415C222.832 48.6038 224.926 51.3835 225.905 54.2306Z" fill="#E6E6E6"/>
</g>
<defs>
<filter id="filter0_d_333_3531" x="0" y="0" width="238.961" height="271.646" filterUnits="userSpaceOnUse" color-interpolation-filters="sRGB">
<feFlood flood-opacity="0" result="BackgroundImageFix"/>
<feColorMatrix in="SourceAlpha" type="matrix" values="0 0 0 0 0 0 0 0 0 0 0 0 0 0 0 0 0 0 127 0" result="hardAlpha"/>
<feOffset dy="4"/>
<feGaussianBlur stdDeviation="2"/>
<feComposite in2="hardAlpha" operator="out"/>
<feColorMatrix type="matrix" values="0 0 0 0 0 0 0 0 0 0 0 0 0 0 0 0 0 0 0.25 0"/>
<feBlend mode="normal" in2="BackgroundImageFix" result="effect1_dropShadow_333_3531"/>
<feBlend mode="normal" in="SourceGraphic" in2="effect1_dropShadow_333_3531" result="shape"/>
</filter>
</defs>
</svg>
