<svg width="28" height="24" viewBox="0 0 28 24" fill="none" xmlns="http://www.w3.org/2000/svg">
<path fill-rule="evenodd" clip-rule="evenodd" d="M14.1155 2.00049C16.6889 2.00049 18.9862 3.43349 19.8292 5.56749C19.9843 5.95849 19.747 6.38549 19.2999 6.52149C18.8539 6.65849 18.3668 6.44949 18.2117 6.05749C17.6083 4.52849 15.96 3.50049 14.1121 3.50049H14.0961C11.7099 3.50049 9.76615 5.19449 9.75588 7.28449L9.75509 8.62649L18.4607 8.62719C21.3169 8.62719 23.6416 10.6652 23.6416 13.1702V17.4582C23.6416 19.9632 21.3169 22.0012 18.4607 22.0012H9.74368C6.88629 22.0012 4.56274 19.9632 4.56274 17.4582V13.1702C4.56274 11.1868 6.01939 9.49617 8.04432 8.8781L8.04488 7.30149C8.0597 4.36349 10.7699 2.00049 14.0927 2.00049H14.1155ZM18.4607 10.1272H9.74368C7.82963 10.1272 6.27375 11.4922 6.27375 13.1702V17.4582C6.27375 19.1362 7.82963 20.5012 9.74368 20.5012H18.4607C20.3736 20.5012 21.9306 19.1362 21.9306 17.4582V13.1702C21.9306 11.4922 20.3736 10.1272 18.4607 10.1272ZM14.1025 13.453C14.5748 13.453 14.958 13.789 14.958 14.203V16.425C14.958 16.839 14.5748 17.175 14.1025 17.175C13.6303 17.175 13.247 16.839 13.247 16.425V14.203C13.247 13.789 13.6303 13.453 14.1025 13.453Z" fill="#1F2C37"/>
</svg>
