<svg width="54" height="54" viewBox="0 0 54 54" fill="none" xmlns="http://www.w3.org/2000/svg">
<path fill-rule="evenodd" clip-rule="evenodd" d="M27 27L21.6172 32.3828L20.375 31.1406L27.8281 23.6875L35.2812 31.1406L34.0391 32.3828L28.6562 27V45.2188H27V27ZM25.3438 35.2812H13.7547C10.1028 35.2812 7.125 32.3151 7.125 28.6562C7.125 25.517 9.31889 22.8788 12.261 22.2004C12.1512 21.6087 12.0938 20.9986 12.0938 20.375C12.0938 14.8867 16.5429 10.4375 22.0312 10.4375C26.3631 10.4375 30.0475 13.2092 31.408 17.0758C32.6905 16.032 34.3269 15.4062 36.1094 15.4062C40.0154 15.4062 43.2196 18.411 43.5367 22.2351C46.4021 22.9639 48.5312 25.5624 48.5312 28.6562C48.5312 32.3077 45.563 35.2812 41.9016 35.2812H30.3125V36.9375H41.9072C46.4803 36.9375 50.1875 33.2206 50.1875 28.6562C50.1875 25.1841 48.0564 22.211 45.0247 20.9804C44.1588 16.8509 40.4962 13.75 36.1094 13.75C34.6802 13.75 33.3279 14.0791 32.1241 14.6657C30.1323 11.1521 26.3586 8.78125 22.0312 8.78125C15.6282 8.78125 10.4375 13.9719 10.4375 20.375C10.4375 20.6038 10.4441 20.8311 10.4572 21.0566C7.52193 22.332 5.46875 25.2595 5.46875 28.6562C5.46875 33.2299 9.16632 36.9375 13.7491 36.9375H25.3438V35.2812Z" fill="#157EFB"/>
</svg>
