<svg width="29" height="28" viewBox="0 0 29 28" fill="none" xmlns="http://www.w3.org/2000/svg">
<path d="M14.4148 16.7119C18.3328 16.7119 21.6783 17.333 21.6783 19.8186C21.6783 22.3033 18.3543 22.947 14.4148 22.947C10.4967 22.947 7.15127 22.3259 7.15127 19.8413C7.15127 17.3556 10.4753 16.7119 14.4148 16.7119ZM20.6792 15.2151C22.1771 15.1874 23.7875 15.3931 24.3826 15.5391C25.6433 15.7869 26.4725 16.2929 26.816 17.0282C27.1064 17.6319 27.1064 18.3322 26.816 18.9348C26.2905 20.0753 24.5963 20.4414 23.9378 20.5361C23.8018 20.5566 23.6924 20.4384 23.7067 20.3016C24.0431 17.1413 21.3674 15.643 20.6752 15.2984C20.6455 15.283 20.6394 15.2594 20.6424 15.245C20.6445 15.2347 20.6568 15.2182 20.6792 15.2151ZM7.98542 15.213L8.26748 15.2155C8.28998 15.2186 8.30122 15.2351 8.30327 15.2443C8.30634 15.2598 8.3002 15.2824 8.27157 15.2988C7.57835 15.6434 4.90259 17.1417 5.23898 20.301C5.25329 20.4388 5.14491 20.556 5.00893 20.5365C4.35047 20.4419 2.65626 20.0757 2.13072 18.9353C1.83932 18.3316 1.83932 17.6323 2.13072 17.0286C2.47426 16.2933 3.30245 15.7873 4.56314 15.5385C5.15923 15.3935 6.76857 15.1878 8.26748 15.2155L7.98542 15.213ZM14.4148 4.67676C17.0824 4.67676 19.2213 6.8261 19.2213 9.51022C19.2213 12.1933 17.0824 14.3447 14.4148 14.3447C11.7472 14.3447 9.60823 12.1933 9.60823 9.51022C9.60823 6.8261 11.7472 4.67676 14.4148 4.67676ZM20.94 5.48281C23.5166 5.48281 25.54 7.92114 24.8509 10.6371C24.3856 12.4656 22.7017 13.6802 20.8255 13.6308C20.6373 13.6256 20.4523 13.6082 20.2733 13.5773C20.1435 13.5547 20.078 13.4076 20.1517 13.2986C20.8674 12.2394 21.2753 10.9652 21.2753 9.59742C21.2753 8.17001 20.8295 6.83927 20.0556 5.74814C20.031 5.7142 20.0126 5.66176 20.0371 5.62268C20.0576 5.5908 20.0954 5.57434 20.1312 5.56611C20.3919 5.51264 20.6598 5.48281 20.94 5.48281ZM8.00522 5.48271C8.28538 5.48271 8.55326 5.51253 8.81501 5.56601C8.84977 5.57424 8.88862 5.59172 8.90907 5.62257C8.93259 5.66165 8.91521 5.7141 8.89067 5.74804C8.11667 6.83917 7.67088 8.16991 7.67088 9.59732C7.67088 10.9651 8.07884 12.2393 8.79456 13.2985C8.86818 13.4075 8.80274 13.5546 8.67289 13.5772C8.49293 13.6091 8.30889 13.6255 8.12076 13.6307C6.24456 13.6801 4.56058 12.4655 4.09536 10.637C3.40521 7.92104 5.42864 5.48271 8.00522 5.48271Z" fill="#33D986"/>
</svg>
