<svg width="29" height="28" viewBox="0 0 29 28" fill="none" xmlns="http://www.w3.org/2000/svg">
<path d="M5.25 7V21C5.25 21.4641 5.43437 21.9092 5.76256 22.2374C6.09075 22.5656 6.53587 22.75 7 22.75H24.5C24.7321 22.75 24.9546 22.6578 25.1187 22.4937C25.2828 22.3296 25.375 22.1071 25.375 21.875V9.625C25.375 9.39294 25.2828 9.17038 25.1187 9.00628C24.9546 8.84219 24.7321 8.75 24.5 8.75H7C6.53587 8.75 6.09075 8.56563 5.76256 8.23744C5.43437 7.90925 5.25 7.46413 5.25 7ZM5.25 7C5.25 6.53587 5.43437 6.09075 5.76256 5.76256C6.09075 5.43437 6.53587 5.25 7 5.25H21.875" stroke="#ACAEBE" stroke-linecap="round" stroke-linejoin="round"/>
<path d="M20.5625 16.625C21.0457 16.625 21.4375 16.2332 21.4375 15.75C21.4375 15.2668 21.0457 14.875 20.5625 14.875C20.0793 14.875 19.6875 15.2668 19.6875 15.75C19.6875 16.2332 20.0793 16.625 20.5625 16.625Z" fill="#ACAEBE"/>
</svg>
