<svg width="29" height="29" viewBox="0 0 29 29" fill="none" xmlns="http://www.w3.org/2000/svg">
<path d="M19.6293 4.39844C23.5675 4.39844 25.8919 6.66463 25.8919 10.5439H21.0604V10.5835C18.8181 10.5835 17.0004 12.3557 17.0004 14.5419C17.0004 16.728 18.8181 18.5003 21.0604 18.5003H25.8919V18.8565C25.8919 22.6863 23.5675 24.9525 19.6293 24.9525H9.31672C5.37846 24.9525 3.05408 22.6863 3.05408 18.8565V10.4944C3.05408 6.66463 5.37846 4.39844 9.31672 4.39844H19.6293ZM25.0393 12.246C25.5102 12.246 25.8919 12.6182 25.8919 13.0773V15.9669C25.8864 16.4238 25.5079 16.7928 25.0393 16.7982H21.1518C20.0166 16.8131 19.024 16.0553 18.7665 14.9773C18.6376 14.3081 18.8186 13.6176 19.261 13.0908C19.7035 12.564 20.3621 12.2547 21.0604 12.246H25.0393ZM21.6085 13.582H21.233C21.0024 13.5793 20.7804 13.6668 20.6164 13.8248C20.4524 13.9828 20.3601 14.1983 20.3601 14.4231C20.3601 14.8948 20.7493 15.2786 21.233 15.2841H21.6085C22.0906 15.2841 22.4815 14.903 22.4815 14.433C22.4815 13.963 22.0906 13.582 21.6085 13.582ZM14.9095 8.84176H8.46411C7.98595 8.84172 7.59675 9.21676 7.59119 9.68292C7.59119 10.1546 7.98037 10.5385 8.46411 10.5439H14.9095C15.3915 10.5439 15.7824 10.1628 15.7824 9.69281C15.7824 9.22279 15.3915 8.84176 14.9095 8.84176Z" fill="#33D986"/>
</svg>
